<svg xmlns="http://www.w3.org/2000/svg" viewBox="0 0 252 252">
    <style>
        path { fill: rgb(17, 24, 39); }
        @media (prefers-color-scheme: dark) {
            path { fill: white; }
        }
    </style>
    <path d="M10 77 L126 55 L66 15 A126 126 0 0 0 10 77" />
    <path d="M10 77 L126 55 L66 15 A126 126 0 0 0 10 77" transform="rotate(45, 126, 126)" />
    <path d="M10 77 L126 55 L66 15 A126 126 0 0 0 10 77" transform="rotate(90, 126, 126)" />
    <path d="M10 77 L126 55 L66 15 A126 126 0 0 0 10 77" transform="rotate(135, 126, 126)" />
    <path d="M10 77 L126 55 L66 15 A126 126 0 0 0 10 77" transform="rotate(180, 126, 126)" />
    <path d="M10 77 L126 55 L66 15 A126 126 0 0 0 10 77" transform="rotate(225, 126, 126)" />
    <path d="M10 77 L126 55 L66 15 A126 126 0 0 0 10 77" transform="rotate(270, 126, 126)" />
    <path d="M10 77 L126 55 L66 15 A126 126 0 0 0 10 77" transform="rotate(315, 126, 126)" />
</svg>
